<!DOCTYPE svg PUBLIC "-//W3C//DTD SVG 1.1//EN" "http://www.w3.org/Graphics/SVG/1.1/DTD/svg11.dtd">
<!-- Uploaded to: SVG Repo, www.svgrepo.com, Transformed by: SVG Repo Mixer Tools -->
<svg version="1.1" id="Icons" xmlns="http://www.w3.org/2000/svg" xmlns:xlink="http://www.w3.org/1999/xlink" viewBox="0 0 32.00 32.00" xml:space="preserve" width="256px" height="256px" fill="#ffffff">
<g id="SVGRepo_bgCarrier" stroke-width="0"/>
<g id="SVGRepo_tracerCarrier" stroke-linecap="round" stroke-linejoin="round" stroke="#CCCCCC" stroke-width="0.96"/>
<g id="SVGRepo_iconCarrier"> <style type="text/css"> .st0{fill:none;stroke:#ffffff;stroke-width:1.7600000000000002;stroke-linecap:round;stroke-linejoin:round;stroke-miterlimit:10;} </style> <ellipse class="st0" cx="11" cy="6" rx="6" ry="3"/> <path class="st0" d="M5,6v4c0,1.7,2.7,3,6,3s6-1.3,6-3V6"/> <path class="st0" d="M5,10v4c0,1.7,2.7,3,6,3s6-1.3,6-3v-4"/> <path class="st0" d="M5,14v4c0,1.7,2.7,3,6,3s6-1.3,6-3v-4"/> <path class="st0" d="M5,18v4c0,1.7,2.7,3,6,3s6-1.3,6-3v-4"/> <path class="st0" d="M5,22v4c0,1.7,2.7,3,6,3s6-1.3,6-3v-4"/> <path class="st0" d="M17,22.2c1.1,0.5,2.5,0.8,4,0.8c3.3,0,6-1.3,6-3v-4"/> <path class="st0" d="M17,13.8c1.1-0.5,2.5-0.8,4-0.8c3.3,0,6,1.3,6,3s-2.7,3-6,3c-1.5,0-2.9-0.3-4-0.8"/> <path class="st0" d="M17,26.2c1.1,0.5,2.5,0.8,4,0.8c3.3,0,6-1.3,6-3v-4"/> </g>
</svg>